<svg
   xmlns:dc="http://purl.org/dc/elements/1.1/"
   xmlns:cc="http://creativecommons.org/ns#"
   xmlns:rdf="http://www.w3.org/1999/02/22-rdf-syntax-ns#"
   xmlns="http://www.w3.org/2000/svg"
   xmlns:sodipodi="http://sodipodi.sourceforge.net/DTD/sodipodi-0.dtd"
   xmlns:inkscape="http://www.inkscape.org/namespaces/inkscape"
   version="1.1"
   id="Capa_1"
   x="0px"
   y="0px"
   width="485.213px"
   height="485.212px"
   viewBox="0 0 485.213 485.212"
   style="enable-background:new 0 0 485.213 485.212;"
   xml:space="preserve"
   inkscape:version="0.91 r13725"
   sodipodi:docname="Date3.svg"><metadata
     id="metadata3432"><rdf:RDF><cc:Work
         rdf:about=""><dc:format>image/svg+xml</dc:format><dc:type
           rdf:resource="http://purl.org/dc/dcmitype/StillImage" /></cc:Work></rdf:RDF></metadata><defs
     id="defs3430" /><sodipodi:namedview
     pagecolor="#ffffff"
     bordercolor="#666666"
     borderopacity="1"
     objecttolerance="10"
     gridtolerance="10"
     guidetolerance="10"
     inkscape:pageopacity="0"
     inkscape:pageshadow="2"
     inkscape:window-width="1673"
     inkscape:window-height="1090"
     id="namedview3428"
     showgrid="false"
     inkscape:zoom="1.2963406"
     inkscape:cx="166.12826"
     inkscape:cy="242.606"
     inkscape:window-x="492"
     inkscape:window-y="143"
     inkscape:window-maximized="0"
     inkscape:current-layer="Capa_1" /><g
     id="g3424"><path
       d="m 60.652,75.816 0,-60.653 C 60.652,6.781 67.433,0 75.817,0 c 8.38,0 15.161,6.781 15.161,15.163 l 0,60.653 c 0,8.38 -6.781,15.161 -15.161,15.161 -8.384,10e-4 -15.165,-6.781 -15.165,-15.161 z m 257.772,15.162 c 8.378,0 15.163,-6.781 15.163,-15.161 l 0,-60.654 C 333.587,6.781 326.802,0 318.424,0 310.042,0 303.256,6.781 303.256,15.163 l 0,60.653 c 0,8.38 6.786,15.162 15.168,15.162 z m 166.788,272.928 c 0,66.996 -54.312,121.307 -121.303,121.307 -66.986,0 -121.302,-54.311 -121.302,-121.307 0,-66.986 54.315,-121.3 121.302,-121.3 66.991,0 121.303,54.313 121.303,121.3 z m -30.322,0 c 0,-50.161 -40.81,-90.976 -90.98,-90.976 -50.166,0 -90.976,40.814 -90.976,90.976 0,50.171 40.81,90.98 90.976,90.98 50.17,0 90.98,-40.809 90.98,-90.98 z m -333.585,-181.951 -60.653,0 0,60.651 60.653,0 z m -60.653,151.629 60.653,0 0,-60.654 -60.653,0 z m 90.977,-90.978 60.654,0 0,-60.651 -60.654,0 z m 0,90.978 60.654,0 0,-60.654 -60.654,0 z m -121.301,27.307 0,-209.263 333.582,0 0,60.653 30.327,0 0,-118.281 c 0,-18.421 -14.692,-33.349 -32.843,-33.349 l -12.647,0 0,15.166 c 0,16.701 -13.596,30.325 -30.322,30.325 -16.731,0 -30.326,-13.624 -30.326,-30.325 l 0,-15.166 -181.959,0 0,15.166 c 0,16.701 -13.593,30.325 -30.322,30.325 -16.733,0 -30.327,-13.624 -30.327,-30.325 l 0,-15.166 -12.632,0 C 14.707,60.651 0.001,75.579 0.001,94 l 0,266.892 c 0,18.36 14.706,33.346 32.858,33.346 l 179.424,0 0,-30.331 -179.424,0 c -1.374,-10e-4 -2.531,-1.42 -2.531,-3.016 z m 272.928,-118.285 0,-60.651 -60.648,0 0,60.651 z"
       id="path3426"
       inkscape:connector-curvature="0"
       sodipodi:nodetypes="ssssscssssssssssssssssssccccccccccccccccccccsccccsscsssccssscsssscccsccccc" /></g><text
     xml:space="preserve"
     style="font-style:normal;font-variant:normal;font-weight:bold;font-stretch:normal;font-size:132.5px;line-height:125%;font-family:'Courier 10 Pitch';-inkscape-font-specification:'Courier 10 Pitch, Bold';text-align:center;letter-spacing:0px;word-spacing:0px;writing-mode:lr-tb;text-anchor:middle;fill:#000000;fill-opacity:1;stroke:none;stroke-width:1px;stroke-linecap:butt;stroke-linejoin:miter;stroke-opacity:1"
     x="362.2749"
     y="399.10095"
     id="text3483"
     sodipodi:linespacing="125%"><tspan
       sodipodi:role="line"
       id="tspan3497"
       x="362.2749"
       y="399.10095">##ID##</tspan></text>
<flowRoot
     xml:space="preserve"
     id="flowRoot3487"
     style="fill:black;stroke:none;stroke-opacity:1;stroke-width:1px;stroke-linejoin:miter;stroke-linecap:butt;fill-opacity:1;font-family:Sans;font-style:normal;font-weight:normal;font-size:40px;line-height:125%;letter-spacing:0px;word-spacing:0px"><flowRegion
       id="flowRegion3489"><rect
         id="rect3491"
         width="61.712177"
         height="42.427124"
         x="352.53082"
         y="314.73212" /></flowRegion></flowRoot></svg>